<?xml version="1.0" encoding="UTF-8" standalone="no"?>
<svg
   xmlns:dc="http://purl.org/dc/elements/1.1/"
   xmlns:cc="http://creativecommons.org/ns#"
   xmlns:rdf="http://www.w3.org/1999/02/22-rdf-syntax-ns#"
   xmlns:svg="http://www.w3.org/2000/svg"
   xmlns="http://www.w3.org/2000/svg"
   xmlns:sodipodi="http://sodipodi.sourceforge.net/DTD/sodipodi-0.dtd"
   xmlns:inkscape="http://www.inkscape.org/namespaces/inkscape"
   version="1.1"
   id="svg2"
   width="16"
   height="16"
   viewBox="0 0 16 16"
   sodipodi:docname="net-radio-symbolic.svg"
   inkscape:version="1.0.2 (e86c870879, 2021-01-15, custom)">
  <metadata
     id="metadata8">
    <rdf:RDF>
      <cc:Work
         rdf:about="">
        <dc:format>image/svg+xml</dc:format>
        <dc:type
           rdf:resource="http://purl.org/dc/dcmitype/StillImage" />
        <dc:title>Gnome Symbolic Icon Theme</dc:title>
      </cc:Work>
    </rdf:RDF>
  </metadata>
  <defs
     id="defs6" />
  <sodipodi:namedview
     pagecolor="#3a3b39"
     bordercolor="#666666"
     borderopacity="1"
     objecttolerance="10"
     gridtolerance="10"
     guidetolerance="10"
     inkscape:pageopacity="1"
     inkscape:pageshadow="2"
     inkscape:window-width="1920"
     inkscape:window-height="1020"
     id="namedview4"
     showgrid="false"
     inkscape:zoom="31.23077"
     inkscape:cx="13.516392"
     inkscape:cy="6.4384157"
     inkscape:window-x="0"
     inkscape:window-y="28"
     inkscape:window-maximized="1"
     inkscape:current-layer="g10"
     inkscape:document-rotation="0"
     showguides="true"
     inkscape:guide-bbox="true"
     showborder="false"
     fit-margin-top="0"
     fit-margin-left="0"
     fit-margin-right="0"
     fit-margin-bottom="0" />
  <g
     inkscape:groupmode="layer"
     inkscape:label="Image"
     id="g10"
     transform="translate(-13.509463,-24.371986)">
    <path
       style="fill:#bebebe;fill-opacity:1;stroke-width:0.0248463"
       d="m 16.183304,38.074661 c -0.196981,-0.05462 -0.272062,-0.109776 -0.531866,-0.390784 -1.064701,-1.151611 -1.741206,-2.495362 -2.018705,-4.009787 -0.09617,-0.524836 -0.124535,-0.861611 -0.123227,-1.46303 0.0024,-1.128246 0.198542,-2.088777 0.635308,-3.11204 0.369668,-0.866063 0.807313,-1.537323 1.499162,-2.299419 0.193324,-0.212954 0.271414,-0.280088 0.397988,-0.342154 0.387086,-0.189809 0.813745,-0.05062 1.008096,0.328858 0.07193,0.140484 0.08457,0.190645 0.08457,0.336034 0,0.246769 -0.0738,0.389986 -0.355929,0.690694 -0.767116,0.81764 -1.285718,1.770135 -1.566943,2.877938 -0.1501,0.591283 -0.216412,1.325399 -0.175089,1.938413 0.104582,1.551564 0.707908,2.933306 1.776201,4.067886 0.246277,0.261562 0.32176,0.414116 0.32176,0.650298 0,0.310282 -0.205605,0.612544 -0.477616,0.702155 -0.177029,0.05832 -0.325174,0.06612 -0.473712,0.02493 z m 10.304741,0.01502 c -0.231159,-0.04616 -0.4167,-0.192405 -0.526835,-0.415237 -0.06783,-0.137246 -0.08072,-0.190754 -0.07944,-0.329964 0.0022,-0.234458 0.08153,-0.393704 0.324265,-0.650537 1.24232,-1.314498 1.88803,-3.068062 1.776153,-4.82353 -0.09959,-1.562821 -0.693019,-2.939197 -1.754426,-4.069199 -0.269633,-0.287059 -0.344537,-0.434649 -0.344537,-0.678867 0,-0.14539 0.01261,-0.195549 0.08457,-0.336033 0.193674,-0.378159 0.619733,-0.519295 1.001916,-0.33189 0.123382,0.0605 0.207482,0.130945 0.381585,0.319624 0.798195,0.865034 1.426928,1.92388 1.770743,2.982103 0.273529,0.841892 0.38809,1.575154 0.387421,2.479714 -6.22e-4,0.924707 -0.114746,1.644694 -0.397425,2.508526 -0.357323,1.09195 -0.894664,1.995216 -1.746874,2.936479 -0.259754,0.286897 -0.33202,0.339453 -0.541466,0.393791 -0.156534,0.04062 -0.198182,0.04248 -0.335655,0.01502 z M 18.571253,35.64371 c -0.165196,-0.05234 -0.31567,-0.174721 -0.535285,-0.435345 -1.186943,-1.408582 -1.435682,-3.313804 -0.646554,-4.952296 0.300716,-0.624386 0.828499,-1.282272 1.129037,-1.407348 0.349684,-0.145529 0.775807,0.0047 0.96149,0.339013 0.06752,0.121547 0.07467,0.1559 0.0745,0.357637 -1.54e-4,0.268248 -0.03629,0.350026 -0.265365,0.601471 -0.607826,0.667201 -0.902288,1.516327 -0.816874,2.355587 0.03218,0.316279 0.05427,0.42424 0.140693,0.688119 0.130377,0.398052 0.370395,0.803546 0.664719,1.122996 0.239817,0.260291 0.27661,0.341739 0.276827,0.612804 1.5e-4,0.201736 -0.007,0.23609 -0.0745,0.357635 -0.176533,0.317822 -0.560814,0.469949 -0.908688,0.359727 z m 5.38572,-0.0069 c -0.16732,-0.05759 -0.294682,-0.156165 -0.384941,-0.297929 -0.0979,-0.15375 -0.129031,-0.281882 -0.115306,-0.474475 0.01437,-0.201561 0.07878,-0.330608 0.264366,-0.529524 0.482465,-0.517153 0.749417,-1.103086 0.826201,-1.813421 0.09095,-0.841435 -0.225468,-1.747702 -0.836005,-2.394412 -0.205259,-0.217418 -0.24767,-0.316934 -0.247882,-0.581628 -1.5e-4,-0.201737 0.007,-0.236089 0.0745,-0.357635 0.176811,-0.318319 0.563571,-0.472182 0.901594,-0.358676 0.166169,0.05579 0.289325,0.151448 0.499797,0.388175 0.515718,0.580059 0.900664,1.341342 1.049906,2.076335 0.226122,1.113632 0.06072,2.187285 -0.488959,3.174032 -0.223755,0.401666 -0.642305,0.9294 -0.849995,1.07173 -0.211215,0.144746 -0.455917,0.179133 -0.693289,0.09743 z m -2.771686,-2.15094 c -0.222919,-0.05899 -0.399599,-0.16112 -0.575115,-0.332462 -0.522887,-0.510459 -0.528251,-1.310909 -0.01223,-1.824886 0.508338,-0.50633 1.312177,-0.507794 1.818661,-0.0034 0.4061,0.404496 0.498801,0.975991 0.243555,1.501526 -0.08868,0.182592 -0.37272,0.467771 -0.553731,0.555959 -0.287602,0.140113 -0.634623,0.178986 -0.921135,0.103176 z"
       id="path14" />
  </g>
</svg>
